<svg xmlns="http://www.w3.org/2000/svg" viewBox="0 0 512 512"><g transform="matrix(0.575758 0 0 0.575758 -39.8182 -23.9167)"><path d="M0 0 C7.63 8.88 7.63 8.88 9.27 13.8 C13.94 19.27 20.57 17.39 27.19 16.88 C30.11 16.72 33.03 16.56 35.96 16.41 C36.66 16.37 36.66 16.37 40.2 16.18 C79.56 14.35 115.99 29.18 145 55 C145 55.66 145 56.32 145 57 C146.32 57.66 147.64 58.32 149 59 C162.12 73.77 172.66 90.66 180 109 C183.66 109.28 183.66 109.28 188.39 108.82 C198.54 108.02 208.58 107.82 218.75 107.81 C220.4 107.8 222.05 107.79 223.75 107.78 C238.35 107.76 252.32 109.76 266.69 112.38 C268.92 112.77 271.15 113.17 273.45 113.59 C279.88 114.97 285.9 116.54 292 119 C292 126.06 282.21 128.82 276.5 132.19 C268.28 137.04 260.11 141.96 252 147 C250.04 148.2 248.08 149.39 246.06 150.62 C240.17 154.25 234.33 157.96 228.5 161.69 C220.77 166.61 213.03 171.52 205.25 176.38 C203.52 177.46 201.8 178.54 200.02 179.65 C196 182 196 182 194 182 C194.36 183.3 194.72 184.6 195.09 185.93 C198.91 200.86 202.92 219.2 197 234 C193 234 193 234 189 231 C189.08 232.15 189.16 233.31 189.25 234.5 C188.75 245.4 185.99 256.79 180 266 C178.35 265.67 176.7 265.34 175 265 C175 264.34 175 263.68 175 263 C174.34 263 173.68 263 173 263 C171.66 272.41 174.01 272.09 181 278 C187.01 284.89 192.16 292.19 197 299.94 C201.41 306.69 205.92 309.99 213 314 C240.4 335.65 254.19 365.28 264 398 C264.7 400.19 265.4 402.37 266.12 404.62 C272.54 426.44 277.73 456.5 265 477 C262 479 262 479 257 479 C253.69 475.5 253.69 475.5 251 472 C251.02 472.75 251.02 472.75 251.12 476.56 C250.78 494.31 247.17 520.22 231 531 C223 531 223 531 218 525 C216.56 521.04 215.21 517.04 214 513 C213.3 515.45 212.6 517.91 211.88 520.44 C208.77 530.34 205.04 536.3 197 543 C187.37 544.38 186.16 542.39 180 535 C177.84 529.51 176.84 524.89 176 519 C174.68 520.98 173.36 522.96 172 525 C167 530 167 530 161 531 C160.17 530.17 160.17 530.17 156 526 C150.96 528.52 146.6 531.76 142 535 C141.34 535.33 140.68 535.66 140 536 C141.79 536.37 143.59 536.74 145.44 537.12 C157.31 540.52 164.97 547.28 171 558 C172 563 172 563 171 565 C163.41 565 160.74 563.67 154.25 560.06 C145.13 555.04 145.13 555.04 142 554 C142.99 556 143.98 558 145 560.06 C149.84 571.25 149.84 571.25 146 577 C138.26 575.71 134.78 572.15 129 567 C129 566.34 129 565.68 129 565 C127.68 564.34 126.36 563.68 125 563 C124.05 561.95 123.1 560.9 122.12 559.81 C119 557 119 557 113 558 C108.95 559.52 104.97 561.16 100.97 562.82 C97 564 97 564 90 563 C91 556 91 556 95 550 C93.86 550.31 93.86 550.31 88.06 551.88 C70.36 556.23 53.15 556.24 35 556 C35.33 556.66 35.66 557.32 36 558 C36 566 36 566 35 567 C28.11 567 25.28 565.35 19.31 562.06 C10.16 557.05 10.16 557.05 7 556 C7.64 557.28 8.28 558.56 8.94 559.88 C11.66 566.63 13.35 572.3 10 579 C2.55 577.94 1.28 577.09 -3.88 572.12 C-5.01 571.06 -6.14 569.99 -7.3 568.88 C-10 566 -10 566 -11 563 C-11.66 563 -12.32 563 -13 563 C-13 562.34 -13 561.68 -13 561 C-13.66 561 -14.32 561 -15 561 C-15.99 559.68 -16.98 558.36 -18 557 C-23.39 557.9 -26.58 559.06 -31.38 561.44 C-38.97 565.2 -44.48 567.42 -53 566 C-54 565 -54 565 -54 560 C-51.76 556.93 -49.44 553.92 -47 551 C-56.66 549.62 -63.68 549.4 -72.75 553.12 C-100.36 563.78 -151.8 579.14 -179 561 C-180 560 -180 560 -180 552 C-179.5 551.17 -179.5 551.17 -177 547 C-177.68 547.28 -177.68 547.28 -181.12 548.69 C-201.38 555.5 -225.87 562.06 -246 552 C-249.29 545.43 -247.96 540.75 -244.5 534.44 C-239.69 528.34 -234.19 523.64 -228 519 C-229.4 519.22 -230.8 519.43 -232.24 519.66 C-233.17 519.8 -233.17 519.8 -237.88 520.5 C-238.79 520.64 -238.79 520.64 -243.43 521.34 C-253.46 522.53 -262.31 522.8 -271 517 C-271 501.25 -258.53 492.56 -245.72 485.04 C-234.49 478.89 -223.73 474.12 -211.31 470.94 C-199.93 467.59 -196.34 462.12 -193 451 C-193.84 451.55 -193.84 451.55 -198.06 454.31 C-209.24 461.25 -209.24 461.25 -218 460 C-225.38 450.16 -218.76 435.86 -214.94 425.31 C-208.82 412.16 -202.34 398.9 -194 387 C-193.34 387 -192.68 387 -192 387 C-191.34 385.35 -190.68 383.7 -190 382 C-189.56 381.48 -189.56 381.48 -187.31 378.88 C-184 375 -184 375 -180.81 369.88 C-176.39 363.06 -171.32 357.12 -166 351 C-164.35 349.02 -162.7 347.04 -161 345 C-160.34 345 -159.68 345 -159 345 C-159 344.34 -159 343.68 -159 343 C-156.36 340.64 -153.69 338.31 -151 336 C-149.78 334.74 -148.57 333.48 -147.31 332.19 C-125.15 310.67 -98.48 298.88 -69 291 C-70.32 289.35 -71.64 287.7 -73 286 C-73 285.34 -73 284.68 -73 284 C-74.98 284.99 -76.96 285.98 -79 287 C-86 287 -86 287 -92 282 C-94.31 276.53 -95 272.99 -95 267 C-96.51 268.01 -98.01 269.02 -99.56 270.06 C-105 273 -105 273 -112 272 C-120.43 259.93 -118.28 243.7 -116 230 C-117.22 230.95 -118.43 231.9 -119.69 232.88 C-124 236 -124 236 -129 238 C-136.99 234 -136.86 223.14 -138 215 C-140.08 162.14 -125.7 113.91 -90 74 C-88.33 72.08 -86.66 70.16 -84.94 68.19 C-81 64 -81 64 -79 64 C-78.67 63.01 -78.34 62.02 -78 61 C-75.95 59.29 -73.84 57.65 -71.69 56.06 C-67.8 53.18 -64.44 50.44 -61 47 C-62.81 47.03 -64.62 47.07 -66.48 47.11 C-67.68 47.12 -67.68 47.12 -73.75 47.19 C-74.93 47.2 -74.93 47.2 -80.92 47.29 C-89.35 46.94 -99.61 46.39 -106 40 C-106 32.06 -101.75 29.49 -95.44 25.38 C-77.75 16.1 -61.24 15.79 -42 19 C-47.33 13.67 -52.99 9.53 -59.09 5.13 C-65.89 -0.32 -68.74 -3.19 -70 -12 C-67 -17 -67 -17 -63 -18 C-63 -18.66 -63 -19.32 -63 -20 C-39.14 -29.26 -16.55 -16.96 0 0 Z " fill="#1b1b19" transform="translate(463,301)"/><path d="M0 0 C1.63 8.16 -3.73 28.73 -10 35 C-10 41 -10 41 -9 43 C-6.82 61.47 -9.01 77.05 -19 93 C-19.66 93 -20.32 93 -21 93 C-21.16 93.66 -21.16 93.66 -22 97 C-33.9 113 -33.9 113 -40 113 C-41.67 109.66 -41.67 106.34 -40 103 C-40.66 103 -41.32 103 -42 103 C-42.66 104.65 -43.32 106.3 -44 108 C-55.11 121.33 -66.98 131 -85 131 C-86 126 -86 126 -85 123 C-86.38 123.47 -87.76 123.95 -89.19 124.44 C-106.95 130.21 -124.9 128 -140 117 C-144 111 -144 111 -144 103 C-135.11 88.18 -120.31 81.56 -104.11 77.18 C-99.98 75.99 -96.01 74.56 -92 73 C-93.34 72.59 -94.68 72.18 -96.06 71.75 C-97.36 71.17 -98.66 70.6 -100 70 C-97.81 61.22 -87.24 59.53 -79.53 56.75 C-72.81 54.15 -66.37 51 -59.89 47.86 C-56 46 -56 46 -53 45 C-53 44.34 -53 43.68 -53 43 C-42.03 36.88 -30.71 32 -18 32 C-19 39 -19 39 -22 45 C-22.66 45 -23.32 45 -24 45 C-24.33 45.99 -24.33 45.99 -26 51 C-40.67 75 -40.67 75 -45 75 C-45 75.66 -45 76.32 -45 77 C-47.2 78.85 -49.46 80.63 -51.75 82.38 C-55.78 85.45 -59.4 88.4 -63 92 C-60.96 90.62 -58.92 89.24 -56.81 87.81 C-55.66 87.04 -54.52 86.26 -53.33 85.46 C-50 83 -50 83 -45 78 C-43.87 77.07 -42.73 76.14 -41.56 75.19 C-32.9 67.43 -27.7 56.99 -22 47 C-21.26 45.73 -20.52 44.47 -19.75 43.16 C-14.63 34.08 -11.66 25.05 -9 15 C-4.59 0 -4.59 0 0 0 Z " fill="#1b1b19" transform="translate(837,275)"/><path d="M0 0 C1.63 8.16 -3.73 28.73 -10 35 C-10 41 -10 41 -9 43 C-6.82 61.47 -9.01 77.05 -19 93 C-19.66 93 -20.32 93 -21 93 C-21.16 93.66 -21.16 93.66 -22 97 C-33.9 113 -33.9 113 -40 113 C-41.67 109.66 -41.67 106.34 -40 103 C-40.66 103 -41.32 103 -42 103 C-42.66 104.65 -43.32 106.3 -44 108 C-55.11 121.33 -66.98 131 -85 131 C-86 126 -86 126 -85 123 C-86.38 123.47 -87.76 123.95 -89.19 124.44 C-106.95 130.21 -124.9 128 -140 117 C-144 111 -144 111 -144 103 C-135.11 88.18 -120.31 81.56 -104.11 77.18 C-99.98 75.99 -96.01 74.56 -92 73 C-93.34 72.59 -94.68 72.18 -96.06 71.75 C-97.36 71.17 -98.66 70.6 -100 70 C-97.81 61.22 -87.24 59.53 -79.53 56.75 C-72.81 54.15 -66.37 51 -59.89 47.86 C-56 46 -56 46 -53 45 C-53 44.34 -53 43.68 -53 43 C-42.03 36.88 -30.71 32 -18 32 C-19 39 -19 39 -22 45 C-22.66 45 -23.32 45 -24 45 C-24.33 45.99 -24.33 45.99 -26 51 C-40.67 75 -40.67 75 -45 75 C-45 75.66 -45 76.32 -45 77 C-47.2 78.85 -49.46 80.63 -51.75 82.38 C-55.78 85.45 -59.4 88.4 -63 92 C-60.96 90.62 -58.92 89.24 -56.81 87.81 C-55.66 87.04 -54.52 86.26 -53.33 85.46 C-50 83 -50 83 -45 78 C-43.87 77.07 -42.73 76.14 -41.56 75.19 C-32.9 67.43 -27.7 56.99 -22 47 C-21.26 45.73 -20.52 44.47 -19.75 43.16 C-14.63 34.08 -11.66 25.05 -9 15 C-4.59 0 -4.59 0 0 0 Z " fill="#e3583f" transform="translate(837,275)"/><path d="M0 0 C2 4 2 4 2 6 C4.81 5.84 4.81 5.84 19 5 C16 11 16 11 13.56 15 C9.28 23.35 5.39 32.61 8 42 C12.42 47.89 13.31 47 21 47 C25.36 45.74 29.69 44.42 34 43 C33.67 45.31 33.34 47.62 33 50 C31.82 60.09 31.71 67.18 37 76 C44.86 79.14 50.49 78.13 58 75 C59.32 74.67 60.64 74.34 62 74 C62 73.34 62 72.68 62 72 C72.55 64 72.55 64 74 64 C74.1 66.48 74.21 68.95 74.31 71.5 C74.66 77.96 75.54 82.41 79 88 C79 88.66 79 89.32 79 90 C80.65 90.66 82.3 91.32 84 92 C84.33 92.33 84.66 92.66 85 93 C92.55 93.71 96.63 91.96 103 88 C103.99 87.67 104.98 87.34 106 87 C106.33 86.34 106.33 86.34 108 83 C112 78 112 78 114 78 C114.66 76.02 115.32 74.04 116 72 C116.66 71.34 116.66 71.34 120 68 C122 71 122 71 122.31 75.69 C123.25 82.95 125.33 87.66 132 91 C137.25 90.75 137.25 90.75 142 90 C142 89.34 142 88.68 142 88 C144.63 86.6 147.3 85.27 150 84 C146.07 103.66 131.82 122.24 120 138 C119.34 138 118.68 138 118 138 C117.34 139.32 116.68 140.64 116 142 C113 146 113 146 111 146 C110.34 147.32 109.68 148.64 109 150 C102.54 156 102.54 156 100 156 C100 156.66 100 157.32 100 158 C83.43 168.36 83.43 168.36 74 166 C74 165.34 74 164.68 74 164 C73.34 164 72.68 164 72 164 C68.22 158.33 68.89 152.28 68.94 145.69 C68.95 143.88 68.96 142.07 68.96 140.2 C68.98 138.81 68.99 137.43 69 136 C68.61 136.66 68.61 136.66 66.62 140 C64 144 64 144 62 144 C61.34 145.32 60.68 146.64 60 148 C56 154 56 154 54 154 C54 154.66 54 155.32 54 156 C53.34 156 52.68 156 52 156 C52 156.66 52 157.32 52 158 C51.34 158 50.68 158 50 158 C50 158.66 50 159.32 50 160 C44 164 44 164 42 164 C42 164.66 42 165.32 42 166 C35.52 169.64 29.54 172 22 172 C13.27 166.18 12 161.09 12 151 C12.58 147.78 13.23 144.57 13.94 141.38 C14.3 139.73 14.66 138.09 15.03 136.4 C15.35 134.95 15.67 133.5 16 132 C16.33 130.35 16.66 128.7 17 127 C15.89 128.15 14.77 129.31 13.62 130.5 C10 134 10 134 8 134 C8 134.66 8 135.32 8 136 C7.34 136 6.68 136 6 136 C6 136.66 6 137.32 6 138 C-1.91 142.66 -7.77 145.15 -17 144 C-28.48 132.52 -23.23 116.08 -20 102 C-17.21 92.02 -12.78 83.15 -8 74 C-8.84 74.55 -8.84 74.55 -13.06 77.31 C-24.24 84.25 -24.24 84.25 -33 83 C-40.38 73.16 -33.76 58.86 -29.94 48.31 C-23.82 35.16 -17.34 21.9 -9 10 C-8.34 10 -7.68 10 -7 10 C-6.34 8.35 -5.68 6.7 -5 5 C-3.35 3.35 -1.7 1.7 0 0 Z M18 124 C18.33 124.66 18.66 125.32 19 126 C19.33 125.34 19.66 124.68 20 124 C19.34 124 18.68 124 18 124 Z " fill="#e3583f" transform="translate(278,678)"/><path d="M0 0 C0.99 0 1.98 0 3 0 C13.74 23.42 20.23 61.09 6 84 C3 86 3 86 -2 86 C-5.31 82.5 -5.31 82.5 -8 79 C-7.96 80.51 -7.92 82.01 -7.88 83.56 C-8.22 101.31 -11.83 127.22 -28 138 C-36 138 -36 138 -41 132 C-42.44 128.04 -43.79 124.04 -45 120 C-45.35 121.23 -45.35 121.23 -47.12 127.44 C-50.23 137.34 -53.96 143.3 -62 150 C-71.63 151.38 -72.84 149.39 -79 142 C-81.16 136.51 -82.16 131.89 -83 126 C-84.32 127.98 -85.64 129.96 -87 132 C-92 137 -92 137 -98 138 C-103 133 -103 133 -102 129 C-100.02 127.35 -98.04 125.7 -96 124 C-80.98 106.4 -69.97 87.98 -61.68 66.44 C-61.13 65.3 -60.57 64.17 -60 63 C-57 63 -57 63 -52 69 C-46 70 -46 70 -42 69 C-36.35 57.7 -34.72 48.56 -34 36 C-30 37 -30 37 -28 38 C-28 38.66 -28 39.32 -28 40 C-23.31 41 -23.31 41 -18 41 C-11.53 33.24 -10.72 28.01 -10.81 18.12 C-10.82 16.64 -10.83 15.16 -10.83 13.63 C-11 10 -11 10 -12 8 C-12 6.02 -12 4.04 -12 2 C-10.21 2.41 -8.41 2.83 -6.56 3.25 C-5.64 3.37 -5.64 3.37 -1 4 C-0.67 2.68 -0.34 1.36 0 0 Z " fill="#e3583f" transform="translate(722,694)"/><path d="M0 0 C12.31 11.44 12.31 11.44 11 18 C9.35 18.99 7.7 19.98 6 21 C1.85 33.46 6.07 45.61 13 56 C12 60 12 60 7.23 61.66 C5.24 62.12 3.24 62.59 1.19 63.06 C-0.8 63.55 -2.79 64.03 -4.83 64.54 C-10 65 -10 65 -14 60 C-21.14 46.93 -26.11 33.68 -26.25 18.69 C-26.28 17.06 -26.3 15.44 -26.33 13.76 C-25.77 5.7 -24.37 2.1 -18 -3 C-10.85 -5.38 -5.97 -3.89 0 0 Z " fill="#faf8f4" transform="translate(597,359)"/><path d="M0 0 C2 3 2 3 2 7 C-2 6 -2 6 -5 5 C-16 5 -16 5 -20.25 11.38 C-25.32 24.77 -22.49 37.3 -17 50 C-16.34 51.65 -15.68 53.3 -15 55 C-14.34 55.33 -14.34 55.33 -11 57 C-9.93 57.72 -8.86 58.44 -7.75 59.19 C-3.13 61.42 -0.91 61.35 4 60 C9 55 9 55 12 49 C12.66 48.67 13.32 48.34 14 48 C19.92 59.83 9.32 79.3 3 89 C-5.99 101.19 -19.39 108.17 -34.5 107.88 C-56.38 105.32 -71.71 91.54 -81 72 C-90.41 47.96 -89.71 23.56 -77 1 C-54.6 -26.76 -23.94 -25.44 0 0 Z " fill="#faf8f4" transform="translate(525,409)"/></g></svg>
