<svg xmlns="http://www.w3.org/2000/svg" viewBox="0 0 512 512"><g transform="matrix(0.625438 0 0 0.625438 -64.4186 -83.1454)"><path d="M0 0 C20.22 18.6 20.22 18.6 20.22 22.66 C20.88 22.65 20.88 22.65 24.2 22.61 C30.27 22.55 36.34 22.51 42.41 22.47 C44.47 22.44 46.54 22.42 48.67 22.39 C83.45 22.23 114.07 30.09 141.22 52.66 C142.77 53.83 144.31 55.01 145.91 56.22 C157.22 65.24 157.22 65.24 157.22 68.66 C157.88 68.66 158.54 68.66 159.22 68.66 C167.87 79.88 182.22 98.87 182.22 113.66 C185.72 113.99 189.24 114.19 192.75 114.33 C194.99 114.44 197.23 114.54 199.53 114.65 C204.23 114.86 208.93 115.06 213.62 115.25 C240.18 116.54 268.98 120.86 292.22 134.66 C290.05 143.32 273.54 147.94 265.78 151.59 C256.67 155.89 247.91 160.58 239.22 165.66 C237.3 166.75 235.38 167.84 233.41 168.97 C227.94 172.22 222.51 175.51 217.09 178.84 C215.46 179.85 213.83 180.85 212.15 181.89 C208.22 184.66 208.22 184.66 206.22 188.66 C204.9 189.65 203.58 190.64 202.22 191.66 C201.61 197.43 201.61 197.43 201.47 204.59 C201.41 206.93 201.36 209.27 201.3 211.68 C201.25 216.16 201.23 220.63 201.25 225.11 C201.2 233.92 201.08 243.59 195.22 250.66 C191.22 248.66 191.22 248.66 188.22 246.66 C187.98 247.92 187.73 249.19 187.48 250.5 C183.94 268.3 183.94 268.3 180.22 274.66 C178.22 274.66 176.22 274.66 174.22 274.66 C170.94 281.34 170.18 286.57 174.5 293.11 C175.42 294.22 176.34 295.33 177.28 296.47 C182.22 302.66 182.22 302.66 182.22 304.66 C189.55 301.52 194.57 298.25 200.47 292.91 C205.22 288.66 205.22 288.66 207.22 288.66 C207.22 288 207.22 287.34 207.22 286.66 C209.84 284.28 212.52 281.95 215.22 279.66 C216.99 278.03 218.77 276.4 220.59 274.72 C225.22 270.66 225.22 270.66 227.22 270.66 C227.22 270 227.22 269.34 227.22 268.66 C251.24 249.38 275.73 247.42 305.22 252.66 C306.8 252.92 308.39 253.19 310.02 253.46 C328.37 256.81 346.06 262.37 363.22 269.66 C365.82 270.61 368.42 271.55 371.03 272.47 C378.01 275.05 384.43 278.23 390.93 281.84 C393.52 283.27 396.17 284.58 398.84 285.84 C405.67 289.51 411.45 295.71 413.41 303.22 C413.22 307.66 413.22 307.66 407.22 312.66 C392.29 318.63 376.57 316.49 361.22 312.66 C364.99 317.08 368.81 321.21 373.03 325.22 C384.37 337.1 393.22 349.92 393.22 366.66 C390.12 372.86 389.3 374.06 383.22 376.66 C371.49 376.66 361.63 372.93 351.22 367.66 C351.22 367 351.22 366.34 351.22 365.66 C348.91 365 346.6 364.34 344.22 363.66 C344.96 365.14 345.7 366.63 346.47 368.16 C347.38 369.97 348.28 371.79 349.22 373.66 C349.9 374.96 350.58 376.25 351.28 377.59 C357.73 391.12 362.12 404.95 357.22 419.66 C346.75 426.63 339.88 424.68 328.22 420.66 C323.09 417.84 323.09 417.84 318.22 414.66 C314.22 412.32 310.22 409.98 306.22 407.66 C307 409.64 307.79 411.62 308.59 413.66 C313.12 426.4 315.5 440.09 309.22 452.66 C306.22 455.66 306.22 455.66 303.22 455.66 C303.22 456.32 303.22 456.98 303.22 457.66 C290.12 457.66 281.88 451.76 271.22 444.66 C271.22 444 271.22 443.34 271.22 442.66 C269.9 442 268.58 441.34 267.22 440.66 C264.55 437.99 261.89 435.32 259.22 432.66 C258.56 432.66 257.9 432.66 257.22 432.66 C256.89 434.64 256.56 436.62 256.22 438.66 C255.89 440.64 255.56 442.62 255.22 444.66 C254.56 444.66 253.9 444.66 253.22 444.66 C252.89 446.31 252.56 447.96 252.22 449.66 C248.36 456.54 246.09 460.29 237.91 461.34 C227.31 460.25 219.44 455.23 211.22 448.66 C209.9 448.66 208.58 448.66 207.22 448.66 C206.56 449.98 205.9 451.3 205.22 452.66 C200.22 456.66 200.22 456.66 193.22 457.66 C192.56 457.33 191.9 457 191.22 456.66 C190.56 458.31 189.9 459.96 189.22 461.66 C187.62 465 185.99 468.33 184.34 471.66 C183.91 472.53 183.91 472.53 181.73 476.97 C179.22 481.66 179.22 481.66 175.22 486.66 C174.23 486.66 173.24 486.66 172.22 486.66 C171.89 484.68 171.56 482.7 171.22 480.66 C170.23 480.66 169.24 480.66 168.22 480.66 C167.56 481.98 166.9 483.3 166.22 484.66 C148.85 506.66 148.85 506.66 143.22 506.66 C143.22 507.32 143.22 507.98 143.22 508.66 C137.19 512.3 131.27 515.74 124.83 518.61 C111.84 524.41 111.84 524.41 110.22 534.66 C107.77 540.24 105.63 544.23 101.41 548.66 C95.57 555.98 98.42 565.23 99.72 574.03 C101.22 584.3 101.22 584.3 101.22 588.66 C106.16 589.2 106.16 589.2 112.78 589.28 C147.08 590.13 147.08 590.13 159.22 602.66 C159.22 603.98 159.22 605.3 159.22 606.66 C151.81 606.78 144.54 606.27 137.16 605.66 C134.92 605.47 132.68 605.28 130.37 605.09 C128.67 604.95 126.97 604.8 125.22 604.66 C125.22 605.32 125.22 605.98 125.22 606.66 C125.88 606.66 126.54 606.66 127.22 606.66 C127.22 607.32 127.22 607.98 127.22 608.66 C128.54 609.32 129.86 609.98 131.22 610.66 C139.22 618.89 139.22 618.89 139.22 623.66 C124.2 623.66 111.15 614.56 98.22 607.66 C90.88 603.99 87.31 604.8 79.22 605.66 C65.05 606.89 65.05 606.89 57.22 604.66 C57.22 602.66 57.22 602.66 60.34 600.78 C66.48 598.11 72.79 596.49 79.22 594.66 C84.22 591.66 84.22 591.66 84.65 586.72 C84.21 580.58 83.39 574.7 82.28 568.66 C81.92 566.66 81.56 564.65 81.19 562.59 C80.22 557.66 80.22 557.66 79.22 554.66 C77.24 554 75.26 553.34 73.22 552.66 C57.22 539.26 57.22 539.26 57.22 534.66 C55.24 534.99 53.26 535.32 51.22 535.66 C48.23 535.68 45.23 535.65 42.24 535.58 C41.38 535.57 41.38 535.57 37.02 535.5 C33.4 535.44 29.77 535.36 26.14 535.27 C24.42 535.25 22.7 535.22 20.93 535.2 C19.35 535.17 17.78 535.14 16.16 535.1 C12.22 535.66 12.22 535.66 8.22 540.66 C2.22 545.66 2.22 545.66 -0.78 545.66 C-0.78 546.32 -0.78 546.98 -0.78 547.66 C-14.06 554.66 -14.06 554.66 -16.78 554.66 C-19.13 560.89 -20.79 567.27 -22.41 573.72 C-22.83 575.4 -23.26 577.08 -23.7 578.82 C-24.05 580.41 -24.41 582.01 -24.78 583.66 C-24.96 584.4 -24.96 584.4 -25.89 588.17 C-25.85 589.32 -25.82 590.47 -25.78 591.66 C-18.41 593.41 -18.41 593.41 -13.94 594.03 C-5.14 595.36 5.17 600.09 10.22 607.66 C5.75 612.13 -2.02 609.36 -7.72 608.34 C-10.05 608.12 -12.38 607.89 -14.78 607.66 C-15.11 609.31 -15.44 610.96 -15.78 612.66 C-23.18 612.66 -27.22 609.93 -33.78 606.66 C-40.67 606.66 -43.66 608.84 -49.32 612.48 C-59.1 618.63 -66.32 622.93 -77.78 619.66 C-73.46 608.85 -61.29 602.64 -51.78 596.66 C-41.76 589.97 -41.86 579.75 -39.97 568.41 C-39.85 567.73 -39.85 567.73 -39.24 564.32 C-37.68 555.07 -38.51 551.18 -42.72 542.84 C-45.78 536.66 -45.78 536.66 -47.34 531.84 C-47.82 530.79 -48.29 529.74 -48.78 528.66 C-57.71 530.44 -65.44 536.1 -72.97 541.09 C-85.31 548.66 -98.08 555.66 -112.78 555.66 C-115.78 552.66 -115.78 552.66 -114.78 546.66 C-113.19 543.94 -111.54 541.27 -109.78 538.66 C-117.92 541.81 -125.86 545.35 -133.8 548.95 C-142.88 552.84 -150.27 552.88 -158.78 547.66 C-160.78 544.66 -160.78 544.66 -160.78 539.66 C-150.78 524.66 -150.78 524.66 -146.78 524.66 C-146.12 523.34 -145.46 522.02 -144.78 520.66 C-137.86 513.2 -130.45 506.32 -122.78 499.66 C-115.57 492.77 -109.43 485.87 -103.78 477.66 C-105.1 477.33 -106.42 477 -107.78 476.66 C-111.59 469.04 -108.53 458.22 -105.78 450.66 C-106.87 451.02 -107.95 451.38 -109.07 451.75 C-110.5 452.21 -111.93 452.68 -113.41 453.16 C-114.82 453.62 -116.24 454.08 -117.7 454.56 C-124.73 456.45 -127 456.28 -132.78 451.66 C-132.78 450.67 -132.78 449.68 -132.78 448.66 C-133.77 448.66 -134.76 448.66 -135.78 448.66 C-136.44 449.98 -137.1 451.3 -137.78 452.66 C-142.78 457.66 -142.78 457.66 -144.78 457.66 C-144.78 458.65 -144.78 459.64 -144.78 460.66 C-147.07 462.07 -149.41 463.39 -151.78 464.66 C-153.76 465.98 -155.74 467.3 -157.78 468.66 C-158.77 468.66 -159.76 468.66 -160.78 468.66 C-160.78 469.32 -160.78 469.98 -160.78 470.66 C-171.45 474.21 -171.45 474.21 -176.78 470.66 C-176.78 470 -176.78 469.34 -176.78 468.66 C-178.1 468 -179.42 467.34 -180.78 466.66 C-184.74 460.72 -185.4 458.57 -186.03 451.78 C-186.11 451.02 -186.11 451.02 -186.48 447.16 C-186.58 446.01 -186.68 444.85 -186.78 443.66 C-191.78 447.66 -191.78 447.66 -196.78 452.66 C-206.4 460.66 -206.4 460.66 -208.78 460.66 C-208.78 461.32 -208.78 461.98 -208.78 462.66 C-218.49 469.74 -228.46 475.76 -240.78 471.66 C-240.78 471 -240.78 470.34 -240.78 469.66 C-242.1 469 -243.42 468.34 -244.78 467.66 C-254.87 454.2 -248.26 437.82 -242.78 423.66 C-243.44 423.33 -244.1 423 -244.78 422.66 C-244.78 423.32 -244.78 423.98 -244.78 424.66 C-261.1 436.3 -283.02 451.34 -304.03 445.47 C-309.25 442.94 -312.35 440.39 -313.78 434.66 C-314.35 426.51 -312.78 420.24 -309.78 412.66 C-309.12 412.66 -308.46 412.66 -307.78 412.66 C-307.12 411.34 -306.46 410.02 -305.78 408.66 C-303.87 405.25 -301.95 401.91 -299.78 398.66 C-299.12 398.66 -298.46 398.66 -297.78 398.66 C-297.12 397.34 -296.46 396.02 -295.78 394.66 C-295.45 394 -295.12 393.34 -294.78 392.66 C-294.12 392.66 -293.46 392.66 -292.78 392.66 C-292.12 391.34 -291.46 390.02 -290.78 388.66 C-288.78 385.66 -288.78 385.66 -286.78 385.66 C-286.78 385 -286.78 384.34 -286.78 383.66 C-286.12 383.66 -285.46 383.66 -284.78 383.66 C-284.78 383 -284.78 382.34 -284.78 381.66 C-285.96 382.18 -285.96 382.18 -291.91 384.84 C-299.42 388.13 -307.02 390.99 -314.78 393.66 C-315.51 393.93 -315.51 393.93 -319.22 395.34 C-330.53 398.6 -342.85 400.77 -353.78 395.66 C-359.88 389.55 -359.88 389.55 -359.78 382.66 C-356.04 372.03 -349.64 364.51 -341.78 356.66 C-341.12 356.66 -340.46 356.66 -339.78 356.66 C-339.45 355.67 -339.12 354.68 -338.78 353.66 C-328.66 344.95 -328.66 344.95 -324.78 343.66 C-324.78 343 -324.78 342.34 -324.78 341.66 C-323.46 341.33 -322.14 341 -320.78 340.66 C-320.78 340 -320.78 339.34 -320.78 338.66 C-317.15 335.94 -313.48 333.28 -309.78 330.66 C-309.45 330.33 -309.12 330 -308.78 329.66 C-315.78 330.66 -315.78 330.66 -319.97 331.66 C-334.74 334.73 -353.45 336.66 -366.78 328.66 C-366.78 328 -366.78 327.34 -366.78 326.66 C-367.44 326.66 -368.1 326.66 -368.78 326.66 C-369.97 312.34 -361.82 307.42 -350.78 299.66 C-340.34 292.66 -340.34 292.66 -336.78 292.66 C-336.78 292 -336.78 291.34 -336.78 290.66 C-334.35 289.42 -331.85 288.3 -329.34 287.22 C-327.71 286.51 -326.08 285.81 -324.4 285.08 C-322.54 284.28 -320.69 283.48 -318.78 282.66 C-316.7 281.72 -314.62 280.79 -312.48 279.82 C-310.33 278.86 -308.18 277.9 -305.97 276.91 C-303.96 276 -301.95 275.1 -299.89 274.17 C-293.6 271.58 -287.29 269.59 -280.78 267.66 C-277.44 266.33 -274.11 265 -270.78 263.66 C-262.25 260.61 -254.08 258.12 -245.15 256.48 C-237.56 255.05 -230.03 253.37 -222.48 251.74 C-193.16 246.16 -169.06 249.59 -145.78 268.66 C-145.45 269.65 -145.12 270.64 -144.78 271.66 C-143.46 272.32 -142.14 272.98 -140.78 273.66 C-138.55 275.8 -136.37 277.99 -134.22 280.22 C-128.37 286.15 -122.36 291.53 -115.78 296.66 C-114.79 297.43 -114.79 297.43 -109.78 301.34 C-92.84 313.52 -92.84 313.52 -83.78 313.66 C-79.31 308.53 -76.89 303.08 -74.78 296.66 C-76.33 297.17 -77.88 297.69 -79.47 298.22 C-84.78 299.66 -84.78 299.66 -89.78 298.66 C-96.63 291.81 -96.21 283.89 -96.78 274.66 C-98.1 275.32 -99.42 275.98 -100.78 276.66 C-106.78 279.66 -106.78 279.66 -112.78 278.66 C-117.76 270.36 -116.9 262.24 -116.84 252.84 C-116.84 251.39 -116.83 249.93 -116.83 248.43 C-116.82 244.84 -116.8 241.25 -116.78 237.66 C-117.38 238.07 -117.38 238.07 -120.41 240.16 C-124.78 242.66 -124.78 242.66 -130.78 242.66 C-136.99 236.45 -136.05 227.34 -136.03 219.03 C-136.03 218.05 -136.03 218.05 -136.05 213.05 C-135.05 189.11 -128.96 164.75 -119.78 142.66 C-119.26 141.32 -118.74 139.99 -118.21 138.62 C-112.29 124.08 -103.73 110.77 -93.78 98.66 C-91.99 96.34 -90.2 94.03 -88.41 91.72 C-77.18 77.48 -65.56 65.82 -49.78 56.66 C-47.53 55.34 -45.29 54.02 -42.97 52.66 C-41.26 51.67 -39.55 50.68 -37.78 49.66 C-40.29 48.4 -42.82 47.16 -45.36 45.96 C-60.15 38.8 -69.28 31.66 -76.78 16.66 C-74.26 10.36 -73.08 9.18 -66.78 6.66 C-51.48 5.2 -38.27 12.29 -24.78 18.66 C-24.12 18.66 -23.46 18.66 -22.78 18.66 C-24.29 16.78 -25.79 14.9 -27.34 12.97 C-39.78 -3.24 -39.78 -3.24 -39.78 -13.34 C-30.22 -27.68 -8.15 -7.2 0 0 Z " fill="#1b1b19" transform="translate(496.78125,259.34375)"/><path d="M0 0 C2.19 0.68 4.39 1.35 6.64 2.05 C12.97 4.18 19.05 6.64 25.19 9.25 C27.79 10.2 30.39 11.14 33 12.06 C39.98 14.65 46.4 17.83 52.9 21.43 C55.49 22.86 58.14 24.17 60.81 25.44 C67.64 29.1 73.42 35.3 75.38 42.81 C75.19 47.25 75.19 47.25 69.19 52.25 C54.26 58.22 38.53 56.09 23.19 52.25 C26.96 56.68 30.77 60.81 35 64.81 C46.34 76.69 55.19 89.52 55.19 106.25 C52.08 112.46 51.27 113.66 45.19 116.25 C33.45 116.25 23.6 112.53 13.19 107.25 C13.19 106.59 13.19 105.93 13.19 105.25 C10.88 104.59 8.57 103.93 6.19 103.25 C6.93 104.74 7.67 106.22 8.44 107.75 C9.35 109.57 10.25 111.38 11.19 113.25 C11.87 114.55 12.55 115.85 13.25 117.19 C19.7 130.71 24.09 144.55 19.19 159.25 C8.72 166.23 1.85 164.27 -9.81 160.25 C-14.94 157.44 -14.94 157.44 -19.81 154.25 C-23.81 151.91 -27.81 149.58 -31.81 147.25 C-31.03 149.23 -30.25 151.21 -29.44 153.25 C-24.92 165.99 -22.53 179.68 -28.81 192.25 C-31.81 195.25 -31.81 195.25 -34.81 195.25 C-34.81 195.91 -34.81 196.57 -34.81 197.25 C-47.92 197.25 -56.16 191.35 -66.81 184.25 C-66.81 183.59 -66.81 182.93 -66.81 182.25 C-67.47 181.92 -67.47 181.92 -70.81 180.25 C-73.48 177.58 -76.15 174.92 -78.81 172.25 C-79.47 172.25 -80.13 172.25 -80.81 172.25 C-80.98 173.24 -80.98 173.24 -81.81 178.25 C-81.98 179.24 -81.98 179.24 -82.81 184.25 C-83.47 184.25 -84.13 184.25 -84.81 184.25 C-85.14 185.9 -85.47 187.55 -85.81 189.25 C-89.67 196.13 -91.94 199.88 -100.12 200.94 C-110.72 199.85 -118.59 194.82 -126.81 188.25 C-128.13 188.25 -129.45 188.25 -130.81 188.25 C-131.14 188.91 -131.14 188.91 -132.81 192.25 C-137.81 196.25 -137.81 196.25 -144.81 197.25 C-145.47 196.92 -146.13 196.59 -146.81 196.25 C-145.37 189.04 -142.85 182.97 -139.81 176.25 C-134.81 176.25 -134.81 176.25 -130.81 179.25 C-130.81 179.91 -130.81 180.57 -130.81 181.25 C-116.54 183.29 -116.54 183.29 -109.81 179.25 C-104.72 171.61 -102.28 164.54 -100.44 155.56 C-99.9 153.81 -99.37 152.06 -98.81 150.25 C-92.86 150.25 -89.37 151.37 -83.81 153.25 C-76.23 154.77 -70.7 153.69 -63.81 150.25 C-63.15 148.6 -62.49 146.95 -61.81 145.25 C-61.15 143.6 -60.49 141.95 -59.81 140.25 C-59.65 136.84 -59.6 133.42 -59.62 130 C-59.63 128.2 -59.64 126.4 -59.64 124.55 C-59.81 120.25 -59.81 120.25 -60.81 119.25 C-61.41 114.75 -61.41 114.75 -60.81 110.25 C-57.16 109.19 -57.16 109.19 -52.31 109.25 C-50.73 109.25 -49.16 109.25 -47.53 109.25 C-45.97 109.25 -44.42 109.25 -42.81 109.25 C-38.22 108.88 -38.22 108.88 -34.81 108.25 C-34.81 107.59 -34.81 106.93 -34.81 106.25 C-33.16 105.26 -31.51 104.27 -29.81 103.25 C-26.63 92.11 -30.56 84.18 -35.81 74.25 C-35.81 73.59 -35.81 72.93 -35.81 72.25 C-36.31 72.09 -36.31 72.09 -38.81 71.25 C-38.81 69.6 -38.81 67.95 -38.81 66.25 C-34.49 65.79 -30.15 65.48 -25.81 65.25 C-22.12 64.34 -18.45 63.35 -14.81 62.25 C-13.49 61.92 -12.17 61.59 -10.81 61.25 C-10.81 52.82 -12.14 49.26 -16.81 42.25 C-16.81 41.59 -16.81 40.93 -16.81 40.25 C-17.47 40.25 -18.13 40.25 -18.81 40.25 C-18.81 39.59 -18.81 38.93 -18.81 38.25 C-19.47 38.25 -20.13 38.25 -20.81 38.25 C-20.81 37.59 -20.81 36.93 -20.81 36.25 C-21.47 36.25 -22.13 36.25 -22.81 36.25 C-26.81 32.25 -26.81 32.25 -26.81 30.25 C-28.46 29.59 -30.11 28.93 -31.81 28.25 C-31.98 27.59 -31.98 27.59 -32.81 24.25 C-28.19 22.77 -23.52 21.44 -18.81 20.25 C-18.48 20.09 -18.48 20.09 -16.81 19.25 C-18.47 9.28 -25.04 6.01 -33.81 2.25 C-33.48 0.93 -33.15 -0.39 -32.81 -1.75 C-20.15 -5.37 -12.63 -3.94 0 0 Z " fill="#e3583f" transform="translate(834.8125,519.75)"/><path d="M0 0 C0 5 0 5 -6 9 C-6.66 9 -7.32 9 -8 9 C-8 9.66 -8 10.32 -8 11 C-8.66 11 -9.32 11 -10 11 C-10 11.66 -10 12.32 -10 13 C-10.66 13 -11.32 13 -12 13 C-12 14.65 -12 16.3 -12 18 C-8 19.69 -8 19.69 -4 21 C-4 21.66 -4 22.32 -4 23 C-2.02 23 -0.04 23 2 23 C2.66 23.33 3.32 23.66 4 24 C4 24.99 4 25.98 4 27 C-2 30 -2 30 -4 30 C-4 30.66 -4 31.32 -4 32 C-10 35 -10 35 -12 35 C-12 35.66 -12 36.32 -12 37 C-16 41 -16 41 -19 42 C-23.17 47.61 -23.74 52.1 -23 59 C-14.48 63.26 -7.49 64.74 1.94 65.69 C4.38 65.94 6.82 66.19 9.34 66.45 C11.21 66.63 13.08 66.81 15 67 C14.67 68.32 14.34 69.64 14 71 C13.34 71 12.68 71 12 71 C12 71.66 12 72.32 12 73 C10.35 74.32 8.7 75.64 7 77 C6.67 77.66 6.34 78.32 6 79 C5.34 79 4.68 79 4 79 C4 79.66 4 80.32 4 81 C3.34 81 2.68 81 2 81 C-1.25 90.75 -1.25 90.75 -2 96 C4.21 102.21 9.96 102.3 18.38 102.62 C20.18 102.7 21.98 102.77 23.84 102.85 C24.52 102.88 24.52 102.88 28 103 C26.9 107.42 25.03 110.93 23 115 C19.47 125.59 18.55 134.99 24 145 C25.32 145.66 26.64 146.32 28 147 C28 147.66 28 148.32 28 149 C32.84 149.97 37.08 150.17 42 150.19 C42.78 150.19 42.78 150.19 46.75 150.23 C51 150 51 150 56 148 C57.32 148 58.64 148 60 148 C59.47 153.04 58.83 158 58 163 C57.56 169.94 57.66 174.41 62 180 C71.89 184.95 77.41 183.88 88 181 C89.32 181 90.64 181 92 181 C92 180.34 92 179.68 92 179 C96.94 177.25 96.94 177.25 102 176 C103.96 179.91 103.05 184.72 103 189 C102.34 189 101.68 189 101 189 C100.34 190.32 99.68 191.64 99 193 C94 198 94 198 92 198 C92 198.99 92 199.98 92 201 C89.72 202.42 87.37 203.74 85 205 C83.02 206.32 81.04 207.64 79 209 C78.01 209 77.02 209 76 209 C76 209.66 76 210.32 76 211 C65.33 214.56 65.33 214.56 60 211 C60 210.34 60 209.68 60 209 C58.68 208.34 57.36 207.68 56 207 C52.04 201.06 51.38 198.91 50.75 192.12 C50.68 191.36 50.68 191.36 50.3 187.51 C50.2 186.35 50.1 185.19 50 184 C45 188 45 188 40 193 C30.38 201 30.38 201 28 201 C28 201.66 28 202.32 28 203 C18.29 210.09 8.33 216.11 -4 212 C-4 211.34 -4 210.68 -4 210 C-4.66 209.67 -4.66 209.67 -8 208 C-18.09 194.54 -11.48 178.16 -6 164 C-6.66 163.67 -7.32 163.34 -8 163 C-8 163.66 -8 164.32 -8 165 C-24.32 176.64 -46.24 191.68 -67.25 185.81 C-72.47 183.29 -75.57 180.73 -77 175 C-77.57 166.85 -76 160.58 -73 153 C-72.34 153 -71.68 153 -71 153 C-70.34 151.68 -69.68 150.36 -69 149 C-67.09 145.59 -65.17 142.25 -63 139 C-62.34 139 -61.68 139 -61 139 C-60.34 137.68 -59.68 136.36 -59 135 C-58.67 134.34 -58.34 133.68 -58 133 C-57.34 133 -56.68 133 -56 133 C-55.34 131.68 -54.68 130.36 -54 129 C-52 126 -52 126 -50 126 C-50 125.34 -50 124.68 -50 124 C-49.34 124 -48.68 124 -48 124 C-48 123.34 -48 122.68 -48 122 C-50.35 123.05 -52.7 124.1 -55.12 125.19 C-62.64 128.48 -70.24 131.34 -78 134 C-79.46 134.56 -80.93 135.11 -82.44 135.69 C-93.75 138.94 -106.07 141.11 -117 136 C-123.1 129.9 -123.1 129.9 -123 123 C-119.26 112.38 -112.86 104.86 -105 97 C-104.34 97 -103.68 97 -103 97 C-102.84 96.5 -102.84 96.5 -102 94 C-91.88 85.29 -91.88 85.29 -88 84 C-88 83.34 -88 82.68 -88 82 C-87.34 81.84 -87.34 81.84 -84 81 C-84 80.34 -84 79.68 -84 79 C-80.37 76.29 -76.7 73.62 -73 71 C-72.67 70.67 -72.34 70.34 -72 70 C-79 71 -79 71 -83.19 72 C-97.96 75.07 -116.67 77 -130 69 C-130 68.34 -130 67.68 -130 67 C-130.66 67 -131.32 67 -132 67 C-133.19 52.68 -125.04 47.76 -114 40 C-103.55 33 -103.55 33 -100 33 C-100 32.34 -100 31.68 -100 31 C-97.57 29.76 -95.07 28.64 -92.56 27.56 C-91.75 27.21 -91.75 27.21 -87.62 25.43 C-85.76 24.63 -83.91 23.82 -82 23 C-79.92 22.07 -77.84 21.13 -75.7 20.17 C-74.62 19.69 -74.62 19.69 -69.19 17.25 C-67.18 16.35 -65.17 15.45 -63.11 14.52 C-56.82 11.93 -50.51 9.93 -44 8 C-40.66 6.67 -37.33 5.34 -34 4 C-9.34 -4.67 -9.34 -4.67 0 0 Z " fill="#e3583f" transform="translate(260,519)"/><path d="M0 0 C8.2 8.2 8.2 8.2 7 13 C5.02 13.99 3.04 14.98 1 16 C-3.46 31.88 2.26 44.12 10 58 C7.83 62.35 -0.41 62.79 -5 64 C-7.35 64.68 -9.7 65.36 -12.12 66.06 C-14.06 66.37 -16 66.68 -18 67 C-30.27 51.66 -36.82 21.91 -30 3 C-21.37 -9.08 -11.39 -7.94 0 0 Z " fill="#faf8f4" transform="translate(640,324)"/><path d="M0 0 C19.6 19.94 23.03 51.79 16.62 78 C9.96 99.8 -2.67 117.98 -25.62 124.19 C-41.82 125.79 -54.27 119.16 -66.31 108.75 C-66.31 108.09 -66.31 107.43 -66.31 106.75 C-66.97 106.75 -67.63 106.75 -68.31 106.75 C-89.63 80.73 -91.4 48.59 -80.94 17.75 C-78.51 12.21 -76.24 8.29 -72.31 3.75 C-71.16 2.41 -70 1.07 -68.81 -0.31 C-47.34 -19.1 -21.71 -16.36 0 0 Z M-22.31 19.75 C-24.84 37.46 -22.28 51.78 -9.31 64.75 C-5.31 66.75 -5.31 66.75 2.69 66.75 C13.53 58.08 13.52 48.01 12.69 34.75 C10.19 24.28 7.42 13.97 -3.31 9.75 C-13.05 8.92 -18.1 10.72 -22.31 19.75 Z " fill="#faf8f4" transform="translate(556.3125,357.25)"/></g></svg>
